# Blender v2.81 (sub 16) OBJ File: 'squareTable.blend'
# www.blender.org
mtllib squareTable.mtl
o Cube_Cube.001
v -7.956860 -0.084952 -4.003705
v -7.956860 0.224645 -4.003705
v -7.956860 -0.084952 -7.860588
v -7.956860 0.224645 -7.860588
v -0.036835 -0.084952 -4.003705
v -0.036835 0.224645 -4.003705
v -0.036835 -0.084952 -7.860588
v -0.036835 0.224645 -7.860588
vt 0.375000 0.000000
vt 0.625000 0.000000
vt 0.625000 0.250000
vt 0.375000 0.250000
vt 0.625000 0.500000
vt 0.375000 0.500000
vt 0.625000 0.750000
vt 0.375000 0.750000
vt 0.625000 1.000000
vt 0.375000 1.000000
vt 0.125000 0.500000
vt 0.125000 0.750000
vt 0.875000 0.500000
vt 0.875000 0.750000
vn -1.0000 0.0000 0.0000
vn 0.0000 0.0000 -1.0000
vn 1.0000 0.0000 0.0000
vn 0.0000 0.0000 1.0000
vn 0.0000 -1.0000 0.0000
vn 0.0000 1.0000 0.0000
usemtl None
s off
f 1/1/1 2/2/1 4/3/1 3/4/1
f 3/4/2 4/3/2 8/5/2 7/6/2
f 7/6/3 8/5/3 6/7/3 5/8/3
f 5/8/4 6/7/4 2/9/4 1/10/4
f 3/11/5 7/6/5 5/8/5 1/12/5
f 8/5/6 4/13/6 2/14/6 6/7/6
o Cylinder_Cylinder.001
v -3.947585 -2.656971 -6.169748
v -3.947585 0.050245 -6.169748
v -3.898812 -2.656971 -6.164945
v -3.898812 0.050245 -6.164945
v -3.851914 -2.656971 -6.150718
v -3.851914 0.050245 -6.150718
v -3.808692 -2.656971 -6.127616
v -3.808692 0.050245 -6.127616
v -3.770808 -2.656971 -6.096525
v -3.770808 0.050245 -6.096525
v -3.739717 -2.656971 -6.058641
v -3.739717 0.050245 -6.058641
v -3.716615 -2.656971 -6.015419
v -3.716615 0.050245 -6.015419
v -3.702389 -2.656971 -5.968521
v -3.702389 0.050245 -5.968521
v -3.697585 -2.656971 -5.919748
v -3.697585 0.050245 -5.919748
v -3.702389 -2.656971 -5.870976
v -3.702389 0.050245 -5.870976
v -3.716615 -2.656971 -5.824078
v -3.716615 0.050245 -5.824078
v -3.739717 -2.656971 -5.780856
v -3.739717 0.050245 -5.780856
v -3.770808 -2.656971 -5.742971
v -3.770808 0.050245 -5.742971
v -3.808692 -2.656971 -5.711881
v -3.808692 0.050245 -5.711881
v -3.851914 -2.656971 -5.688778
v -3.851914 0.050245 -5.688778
v -3.898812 -2.656971 -5.674552
v -3.898812 0.050245 -5.674552
v -3.947585 -2.656971 -5.669748
v -3.947585 0.050245 -5.669748
v -3.996357 -2.656971 -5.674552
v -3.996357 0.050245 -5.674552
v -4.043256 -2.656971 -5.688778
v -4.043256 0.050245 -5.688778
v -4.086478 -2.656971 -5.711881
v -4.086478 0.050245 -5.711881
v -4.124362 -2.656971 -5.742972
v -4.124362 0.050245 -5.742972
v -4.155452 -2.656971 -5.780856
v -4.155452 0.050245 -5.780856
v -4.178555 -2.656971 -5.824078
v -4.178555 0.050245 -5.824078
v -4.192781 -2.656971 -5.870976
v -4.192781 0.050245 -5.870976
v -4.197585 -2.656971 -5.919749
v -4.197585 0.050245 -5.919749
v -4.192781 -2.656971 -5.968521
v -4.192781 0.050245 -5.968521
v -4.178555 -2.656971 -6.015419
v -4.178555 0.050245 -6.015419
v -4.155452 -2.656971 -6.058641
v -4.155452 0.050245 -6.058641
v -4.124362 -2.656971 -6.096525
v -4.124362 0.050245 -6.096525
v -4.086477 -2.656971 -6.127616
v -4.086477 0.050245 -6.127616
v -4.043255 -2.656971 -6.150718
v -4.043255 0.050245 -6.150718
v -3.996357 -2.656971 -6.164945
v -3.996357 0.050245 -6.164945
v -3.947016 -2.958513 -7.169173
v -3.703154 -2.958513 -7.145154
v -3.468662 -2.958513 -7.074022
v -3.252554 -2.958513 -6.958510
v -3.063133 -2.958513 -6.803056
v -2.907680 -2.958513 -6.613636
v -2.792167 -2.958513 -6.397527
v -2.721035 -2.958513 -6.163036
v -2.697016 -2.958513 -5.919173
v -2.721035 -2.958513 -5.675310
v -2.792167 -2.958513 -5.440819
v -2.907680 -2.958513 -5.224710
v -3.063133 -2.958513 -5.035289
v -3.252554 -2.958513 -4.879836
v -3.468662 -2.958513 -4.764323
v -3.703154 -2.958513 -4.693191
v -3.947017 -2.958513 -4.669173
v -4.190880 -2.958513 -4.693192
v -4.425371 -2.958513 -4.764324
v -4.641480 -2.958513 -4.879836
v -4.830901 -2.958513 -5.035290
v -4.986354 -2.958513 -5.224710
v -5.101866 -2.958513 -5.440819
v -5.172998 -2.958513 -5.675311
v -5.197017 -2.958513 -5.919174
v -5.172998 -2.958513 -6.163037
v -5.101865 -2.958513 -6.397528
v -4.986353 -2.958513 -6.613637
v -4.830899 -2.958513 -6.803057
v -4.641478 -2.958513 -6.958511
v -4.425369 -2.958513 -7.074023
v -4.190877 -2.958513 -7.145155
vt 1.000000 0.500000
vt 1.000000 1.000000
vt 0.968750 1.000000
vt 0.968750 0.500000
vt 0.937500 1.000000
vt 0.937500 0.500000
vt 0.906250 1.000000
vt 0.906250 0.500000
vt 0.875000 1.000000
vt 0.875000 0.500000
vt 0.843750 1.000000
vt 0.843750 0.500000
vt 0.812500 1.000000
vt 0.812500 0.500000
vt 0.781250 1.000000
vt 0.781250 0.500000
vt 0.750000 1.000000
vt 0.750000 0.500000
vt 0.718750 1.000000
vt 0.718750 0.500000
vt 0.687500 1.000000
vt 0.687500 0.500000
vt 0.656250 1.000000
vt 0.656250 0.500000
vt 0.625000 1.000000
vt 0.625000 0.500000
vt 0.593750 1.000000
vt 0.593750 0.500000
vt 0.562500 1.000000
vt 0.562500 0.500000
vt 0.531250 1.000000
vt 0.531250 0.500000
vt 0.500000 1.000000
vt 0.500000 0.500000
vt 0.468750 1.000000
vt 0.468750 0.500000
vt 0.437500 1.000000
vt 0.437500 0.500000
vt 0.406250 1.000000
vt 0.406250 0.500000
vt 0.375000 1.000000
vt 0.375000 0.500000
vt 0.343750 1.000000
vt 0.343750 0.500000
vt 0.312500 1.000000
vt 0.312500 0.500000
vt 0.281250 1.000000
vt 0.281250 0.500000
vt 0.250000 1.000000
vt 0.250000 0.500000
vt 0.218750 1.000000
vt 0.218750 0.500000
vt 0.187500 1.000000
vt 0.187500 0.500000
vt 0.156250 1.000000
vt 0.156250 0.500000
vt 0.125000 1.000000
vt 0.125000 0.500000
vt 0.093750 1.000000
vt 0.093750 0.500000
vt 0.062500 1.000000
vt 0.062500 0.500000
vt 0.296822 0.485388
vt 0.250000 0.490000
vt 0.203179 0.485389
vt 0.158156 0.471731
vt 0.116663 0.449553
vt 0.080295 0.419706
vt 0.050447 0.383337
vt 0.028269 0.341844
vt 0.014612 0.296822
vt 0.010000 0.250000
vt 0.014611 0.203179
vt 0.028269 0.158156
vt 0.050447 0.116663
vt 0.080294 0.080294
vt 0.116663 0.050447
vt 0.158156 0.028269
vt 0.203178 0.014612
vt 0.250000 0.010000
vt 0.296822 0.014612
vt 0.341844 0.028269
vt 0.383337 0.050447
vt 0.419706 0.080294
vt 0.449553 0.116663
vt 0.471731 0.158156
vt 0.485388 0.203178
vt 0.490000 0.250000
vt 0.485388 0.296822
vt 0.471731 0.341844
vt 0.449553 0.383337
vt 0.419706 0.419706
vt 0.383337 0.449553
vt 0.341844 0.471731
vt 0.031250 1.000000
vt 0.031250 0.500000
vt 0.000000 1.000000
vt 0.000000 0.500000
vt 0.750000 0.490000
vt 0.796822 0.485388
vt 0.841844 0.471731
vt 0.883337 0.449553
vt 0.919706 0.419706
vt 0.949553 0.383337
vt 0.971731 0.341844
vt 0.985388 0.296822
vt 0.990000 0.250000
vt 0.985388 0.203178
vt 0.971731 0.158156
vt 0.949553 0.116663
vt 0.919706 0.080294
vt 0.883337 0.050447
vt 0.841844 0.028269
vt 0.796822 0.014612
vt 0.750000 0.010000
vt 0.703178 0.014612
vt 0.658156 0.028269
vt 0.616663 0.050447
vt 0.580294 0.080294
vt 0.550447 0.116663
vt 0.528269 0.158156
vt 0.514611 0.203179
vt 0.510000 0.250000
vt 0.514612 0.296822
vt 0.528269 0.341844
vt 0.550447 0.383337
vt 0.580295 0.419706
vt 0.616663 0.449553
vt 0.658156 0.471731
vt 0.703179 0.485389
vt 1.000000 0.500000
vt 1.000000 1.000000
vt 0.968750 1.000000
vt 0.968750 0.500000
vt 0.937500 1.000000
vt 0.937500 0.500000
vt 0.906250 1.000000
vt 0.906250 0.500000
vt 0.875000 1.000000
vt 0.875000 0.500000
vt 0.843750 1.000000
vt 0.843750 0.500000
vt 0.812500 1.000000
vt 0.812500 0.500000
vt 0.781250 1.000000
vt 0.781250 0.500000
vt 0.750000 1.000000
vt 0.750000 0.500000
vt 0.718750 1.000000
vt 0.718750 0.500000
vt 0.687500 1.000000
vt 0.687500 0.500000
vt 0.656250 1.000000
vt 0.656250 0.500000
vt 0.625000 1.000000
vt 0.625000 0.500000
vt 0.593750 1.000000
vt 0.593750 0.500000
vt 0.562500 1.000000
vt 0.562500 0.500000
vt 0.531250 1.000000
vt 0.531250 0.500000
vt 0.500000 1.000000
vt 0.500000 0.500000
vt 0.468750 1.000000
vt 0.468750 0.500000
vt 0.437500 1.000000
vt 0.437500 0.500000
vt 0.406250 1.000000
vt 0.406250 0.500000
vt 0.375000 1.000000
vt 0.375000 0.500000
vt 0.343750 1.000000
vt 0.343750 0.500000
vt 0.312500 1.000000
vt 0.312500 0.500000
vt 0.281250 1.000000
vt 0.281250 0.500000
vt 0.250000 1.000000
vt 0.250000 0.500000
vt 0.218750 1.000000
vt 0.218750 0.500000
vt 0.187500 1.000000
vt 0.187500 0.500000
vt 0.156250 1.000000
vt 0.156250 0.500000
vt 0.125000 1.000000
vt 0.125000 0.500000
vt 0.093750 1.000000
vt 0.093750 0.500000
vt 0.062500 1.000000
vt 0.062500 0.500000
vt 0.031250 1.000000
vt 0.031250 0.500000
vt 0.000000 1.000000
vt 0.000000 0.500000
vt 0.750000 0.490000
vt 0.796822 0.485388
vt 0.841844 0.471731
vt 0.883337 0.449553
vt 0.919706 0.419706
vt 0.949553 0.383337
vt 0.971731 0.341844
vt 0.985388 0.296822
vt 0.990000 0.250000
vt 0.985388 0.203178
vt 0.971731 0.158156
vt 0.949553 0.116663
vt 0.919706 0.080294
vt 0.883337 0.050447
vt 0.841844 0.028269
vt 0.796822 0.014612
vt 0.750000 0.010000
vt 0.703178 0.014612
vt 0.658156 0.028269
vt 0.616663 0.050447
vt 0.580294 0.080294
vt 0.550447 0.116663
vt 0.528269 0.158156
vt 0.514611 0.203179
vt 0.510000 0.250000
vt 0.514612 0.296822
vt 0.528269 0.341844
vt 0.550447 0.383337
vt 0.580295 0.419706
vt 0.616663 0.449553
vt 0.658156 0.471731
vt 0.703179 0.485389
vn 0.0980 0.0000 -0.9952
vn 0.2903 0.0000 -0.9569
vn 0.4714 0.0000 -0.8819
vn 0.6344 0.0000 -0.7730
vn 0.7730 0.0000 -0.6344
vn 0.8819 0.0000 -0.4714
vn 0.9569 0.0000 -0.2903
vn 0.9952 0.0000 -0.0980
vn 0.9952 0.0000 0.0980
vn 0.9569 0.0000 0.2903
vn 0.8819 0.0000 0.4714
vn 0.7730 0.0000 0.6344
vn 0.6344 0.0000 0.7730
vn 0.4714 0.0000 0.8819
vn 0.2903 0.0000 0.9569
vn 0.0980 0.0000 0.9952
vn -0.0980 0.0000 0.9952
vn -0.2903 0.0000 0.9569
vn -0.4714 0.0000 0.8819
vn -0.6344 0.0000 0.7730
vn -0.7730 0.0000 0.6344
vn -0.8819 0.0000 0.4714
vn -0.9569 0.0000 0.2903
vn -0.9952 0.0000 0.0980
vn -0.9952 0.0000 -0.0980
vn -0.9569 0.0000 -0.2903
vn -0.8819 0.0000 -0.4714
vn -0.7730 0.0000 -0.6344
vn -0.6344 0.0000 -0.7730
vn -0.4714 0.0000 -0.8819
vn 0.0000 1.0000 -0.0000
vn -0.2903 0.0000 -0.9569
vn -0.0980 0.0000 -0.9952
vn 0.0000 -1.0000 -0.0000
vn 0.0284 0.9570 -0.2887
vn 0.0842 0.9570 -0.2776
vn 0.1367 0.9570 -0.2558
vn 0.1840 0.9570 -0.2242
vn 0.2241 0.9570 -0.1839
vn 0.2557 0.9571 -0.1367
vn 0.2774 0.9571 -0.0841
vn 0.2885 0.9571 -0.0284
vn 0.2884 0.9571 0.0284
vn 0.2773 0.9571 0.0841
vn 0.2556 0.9571 0.1366
vn 0.2240 0.9571 0.1838
vn 0.1838 0.9571 0.2240
vn 0.1366 0.9571 0.2556
vn 0.0841 0.9571 0.2773
vn 0.0284 0.9571 0.2884
vn -0.0284 0.9571 0.2884
vn -0.0841 0.9571 0.2774
vn -0.1367 0.9571 0.2557
vn -0.1839 0.9570 0.2241
vn -0.2242 0.9570 0.1840
vn -0.2558 0.9570 0.1367
vn -0.2776 0.9570 0.0842
vn -0.2887 0.9570 0.0284
vn -0.2888 0.9570 -0.0284
vn -0.2777 0.9570 -0.0842
vn -0.2559 0.9570 -0.1368
vn -0.2243 0.9570 -0.1841
vn -0.1841 0.9570 -0.2243
vn -0.1368 0.9570 -0.2559
vn -0.0842 0.9570 -0.2777
vn -0.0284 0.9570 -0.2888
usemtl None
s off
f 9/15/7 10/16/7 12/17/7 11/18/7
f 11/18/8 12/17/8 14/19/8 13/20/8
f 13/20/9 14/19/9 16/21/9 15/22/9
f 15/22/10 16/21/10 18/23/10 17/24/10
f 17/24/11 18/23/11 20/25/11 19/26/11
f 19/26/12 20/25/12 22/27/12 21/28/12
f 21/28/13 22/27/13 24/29/13 23/30/13
f 23/30/14 24/29/14 26/31/14 25/32/14
f 25/32/15 26/31/15 28/33/15 27/34/15
f 27/34/16 28/33/16 30/35/16 29/36/16
f 29/36/17 30/35/17 32/37/17 31/38/17
f 31/38/18 32/37/18 34/39/18 33/40/18
f 33/40/19 34/39/19 36/41/19 35/42/19
f 35/42/20 36/41/20 38/43/20 37/44/20
f 37/44/21 38/43/21 40/45/21 39/46/21
f 39/46/22 40/45/22 42/47/22 41/48/22
f 41/48/23 42/47/23 44/49/23 43/50/23
f 43/50/24 44/49/24 46/51/24 45/52/24
f 45/52/25 46/51/25 48/53/25 47/54/25
f 47/54/26 48/53/26 50/55/26 49/56/26
f 49/56/27 50/55/27 52/57/27 51/58/27
f 51/58/28 52/57/28 54/59/28 53/60/28
f 53/60/29 54/59/29 56/61/29 55/62/29
f 55/62/30 56/61/30 58/63/30 57/64/30
f 57/64/31 58/63/31 60/65/31 59/66/31
f 59/66/32 60/65/32 62/67/32 61/68/32
f 61/68/33 62/67/33 64/69/33 63/70/33
f 63/70/34 64/69/34 66/71/34 65/72/34
f 65/72/35 66/71/35 68/73/35 67/74/35
f 67/74/36 68/73/36 70/75/36 69/76/36
f 12/77/37 10/78/37 72/79/37 70/80/37 68/81/37 66/82/37 64/83/37 62/84/37 60/85/37 58/86/37 56/87/37 54/88/37 52/89/37 50/90/37 48/91/37 46/92/37 44/93/37 42/94/37 40/95/37 38/96/37 36/97/37 34/98/37 32/99/37 30/100/37 28/101/37 26/102/37 24/103/37 22/104/37 20/105/37 18/106/37 16/107/37 14/108/37
f 69/76/38 70/75/38 72/109/38 71/110/38
f 71/110/39 72/109/39 10/111/39 9/112/39
f 9/113/40 11/114/40 13/115/40 15/116/40 17/117/40 19/118/40 21/119/40 23/120/40 25/121/40 27/122/40 29/123/40 31/124/40 33/125/40 35/126/40 37/127/40 39/128/40 41/129/40 43/130/40 45/131/40 47/132/40 49/133/40 51/134/40 53/135/40 55/136/40 57/137/40 59/138/40 61/139/40 63/140/40 65/141/40 67/142/40 69/143/40 71/144/40
f 73/145/41 9/146/41 11/147/41 74/148/41
f 74/148/42 11/147/42 13/149/42 75/150/42
f 75/150/43 13/149/43 15/151/43 76/152/43
f 76/152/44 15/151/44 17/153/44 77/154/44
f 77/154/45 17/153/45 19/155/45 78/156/45
f 78/156/46 19/155/46 21/157/46 79/158/46
f 79/158/47 21/157/47 23/159/47 80/160/47
f 80/160/48 23/159/48 25/161/48 81/162/48
f 81/162/49 25/161/49 27/163/49 82/164/49
f 82/164/50 27/163/50 29/165/50 83/166/50
f 83/166/51 29/165/51 31/167/51 84/168/51
f 84/168/52 31/167/52 33/169/52 85/170/52
f 85/170/53 33/169/53 35/171/53 86/172/53
f 86/172/54 35/171/54 37/173/54 87/174/54
f 87/174/55 37/173/55 39/175/55 88/176/55
f 88/176/56 39/175/56 41/177/56 89/178/56
f 89/178/57 41/177/57 43/179/57 90/180/57
f 90/180/58 43/179/58 45/181/58 91/182/58
f 91/182/59 45/181/59 47/183/59 92/184/59
f 92/184/60 47/183/60 49/185/60 93/186/60
f 93/186/61 49/185/61 51/187/61 94/188/61
f 94/188/62 51/187/62 53/189/62 95/190/62
f 95/190/63 53/189/63 55/191/63 96/192/63
f 96/192/64 55/191/64 57/193/64 97/194/64
f 97/194/65 57/193/65 59/195/65 98/196/65
f 98/196/66 59/195/66 61/197/66 99/198/66
f 99/198/67 61/197/67 63/199/67 100/200/67
f 100/200/68 63/199/68 65/201/68 101/202/68
f 101/202/69 65/201/69 67/203/69 102/204/69
f 102/204/70 67/203/70 69/205/70 103/206/70
f 103/206/71 69/205/71 71/207/71 104/208/71
f 104/208/72 71/207/72 9/209/72 73/210/72
f 73/211/40 74/212/40 75/213/40 76/214/40 77/215/40 78/216/40 79/217/40 80/218/40 81/219/40 82/220/40 83/221/40 84/222/40 85/223/40 86/224/40 87/225/40 88/226/40 89/227/40 90/228/40 91/229/40 92/230/40 93/231/40 94/232/40 95/233/40 96/234/40 97/235/40 98/236/40 99/237/40 100/238/40 101/239/40 102/240/40 103/241/40 104/242/40
